<?xml version="1.0" encoding="utf-8"?>
<!-- Generator: Adobe Illustrator 23.0.0, SVG Export Plug-In . SVG Version: 6.00 Build 0)  -->
<svg version="1.0" id="图层_1" xmlns="http://www.w3.org/2000/svg" xmlns:xlink="http://www.w3.org/1999/xlink" x="0px" y="0px"
	 viewBox="0 0 180.3 199.1" style="enable-background:new 0 0 180.3 199.1;" xml:space="preserve">
<style type="text/css">
	.st0{fill:#FFFFFF;}
</style>
<g>
	<path class="st0" d="M47,106.5c0,1.6-0.4,3-1.2,4.2c-0.8,1.2-2,2.2-3.6,2.9s-3.4,1-5.6,1c-2.4,0-4.4-0.4-6.1-1.1
		c-1.6-0.7-3-1.6-4.1-2.6l3.1-3.4c0.9,0.8,2,1.5,3.1,1.9s2.4,0.7,3.8,0.7c0.8,0,1.6-0.1,2.2-0.4s1.1-0.6,1.5-1.1
		c0.4-0.5,0.5-1,0.5-1.7c0-0.6-0.1-1.2-0.4-1.6c-0.3-0.4-0.8-0.8-1.4-1.2c-0.7-0.3-1.6-0.7-2.8-1.1c-2-0.6-3.6-1.3-4.8-2
		s-2.1-1.6-2.6-2.6c-0.5-1-0.8-2.1-0.8-3.4c0-1.6,0.4-2.9,1.3-4c0.9-1.1,2-2,3.5-2.5c1.5-0.6,3.1-0.9,4.8-0.9c2,0,3.7,0.3,5.2,0.9
		s2.8,1.4,3.9,2.4l-2.9,3.3c-0.9-0.7-1.8-1.3-2.8-1.6c-1-0.4-2-0.5-3-0.5c-0.8,0-1.4,0.1-2,0.3c-0.6,0.2-1,0.5-1.3,0.8
		c-0.3,0.4-0.5,0.8-0.5,1.4c0,0.5,0.2,1,0.5,1.4s0.8,0.7,1.6,1c0.8,0.3,1.8,0.7,3.2,1.1c1.6,0.5,3,1.1,4.1,1.8s2,1.5,2.6,2.6
		C46.7,103.6,47,104.9,47,106.5z"/>
	<path class="st0" d="M68.4,112.9c-0.8,0.5-1.7,0.9-2.8,1.3c-1.1,0.3-2.3,0.5-3.7,0.5c-2.6,0-4.5-0.7-5.7-2
		c-1.2-1.3-1.9-3.1-1.9-5.3v-8.9h-4.1v-4h4.1v-4.2l5.8-0.7v4.9h6.3l-0.6,4h-5.7v8.9c0,1,0.2,1.7,0.7,2.1c0.4,0.4,1.2,0.6,2.1,0.6
		c0.7,0,1.3-0.1,1.9-0.3s1.1-0.4,1.5-0.6L68.4,112.9z"/>
	<path class="st0" d="M73.1,114v-3.9h2.6V98.3h-2.6v-3.9h7l1.1,4.4c0.7-1.7,1.6-2.9,2.7-3.8c1.1-0.8,2.4-1.2,4-1.2
		c0.7,0,1.3,0.1,1.8,0.2c0.5,0.1,1,0.2,1.5,0.4l-1.8,4.8C89,99.1,88.6,99,88.3,99c-0.4,0-0.8-0.1-1.2-0.1c-1.3,0-2.4,0.5-3.4,1.6
		c-1,1-1.7,2.4-2.2,4v5.6h3.9v3.9H73.1z M86.3,102.6v-5.7l0.9-2.5h3.9l-1.1,8.2H86.3z"/>
	<path class="st0" d="M107,94.4V110h5v4H95.6v-4h5.6V98.4h-5.4v-4H107z M103.5,84.1c1,0,1.8,0.3,2.5,0.9c0.6,0.6,1,1.4,1,2.3
		s-0.3,1.7-1,2.4c-0.6,0.6-1.5,1-2.5,1c-1,0-1.9-0.3-2.5-1c-0.6-0.6-1-1.4-1-2.4s0.3-1.7,1-2.3C101.6,84.4,102.5,84.1,103.5,84.1z"
		/>
	<path class="st0" d="M117.2,114V94.4h5.1l0.4,2.3c0.9-1,1.8-1.7,2.8-2.2c1-0.5,2.1-0.7,3.3-0.7c1.7,0,3,0.5,4,1.5
		c1,1,1.4,2.5,1.4,4.3V114h-5.8v-12.7c0-0.8-0.1-1.4-0.2-1.9c-0.1-0.5-0.3-0.8-0.6-1c-0.3-0.2-0.7-0.3-1.1-0.3
		c-0.4,0-0.8,0.1-1.2,0.3c-0.4,0.2-0.8,0.4-1.1,0.8c-0.4,0.3-0.7,0.7-1.1,1.2V114H117.2z"/>
	<path class="st0" d="M156.8,91.3l1.4,4.3c-0.7,0.3-1.5,0.5-2.4,0.6s-2,0.2-3.2,0.2c1.2,0.5,2.2,1.2,2.8,2c0.6,0.8,1,1.8,1,3.1
		c0,1.3-0.3,2.4-1,3.4c-0.7,1-1.6,1.8-2.9,2.3c-1.2,0.6-2.7,0.8-4.4,0.8c-0.4,0-0.8,0-1.2-0.1s-0.7-0.1-1.1-0.2
		c-0.2,0.1-0.4,0.3-0.5,0.5c-0.1,0.2-0.2,0.4-0.2,0.6c0,0.3,0.1,0.6,0.4,0.8c0.3,0.2,0.8,0.4,1.8,0.4h3.2c1.5,0,2.8,0.2,4,0.7
		c1.1,0.5,2,1.2,2.6,2c0.6,0.8,0.9,1.8,0.9,2.9c0,2-0.9,3.6-2.6,4.7c-1.8,1.2-4.4,1.7-7.8,1.7c-2.5,0-4.5-0.3-5.8-0.8
		c-1.4-0.5-2.3-1.2-2.9-2.2c-0.5-0.9-0.8-2.1-0.8-3.4h5.2c0,0.6,0.1,1,0.3,1.4c0.2,0.4,0.7,0.6,1.3,0.8c0.6,0.2,1.6,0.3,2.8,0.3
		c1.2,0,2.2-0.1,2.8-0.3c0.7-0.2,1.1-0.5,1.3-0.8c0.2-0.3,0.4-0.7,0.4-1.1c0-0.6-0.2-1-0.7-1.4s-1.2-0.5-2.2-0.5h-3.1
		c-2.1,0-3.7-0.4-4.6-1.2c-1-0.8-1.4-1.7-1.4-2.7c0-0.7,0.2-1.4,0.6-2.1s0.9-1.2,1.6-1.6c-1.3-0.7-2.2-1.4-2.7-2.4
		c-0.5-0.9-0.8-2-0.8-3.3c0-1.5,0.4-2.7,1.1-3.8c0.8-1.1,1.8-1.9,3.1-2.5s2.8-0.9,4.5-0.9c1.5,0,2.7-0.1,3.8-0.3
		c1.1-0.2,2.1-0.5,2.9-0.9S156,91.7,156.8,91.3z M147.7,97.6c-0.9,0-1.7,0.3-2.2,0.9c-0.5,0.6-0.8,1.4-0.8,2.4
		c0,1.1,0.3,1.9,0.8,2.5s1.3,0.9,2.2,0.9c1,0,1.7-0.3,2.2-0.9c0.5-0.6,0.8-1.4,0.8-2.6c0-1.1-0.3-1.9-0.8-2.4S148.7,97.6,147.7,97.6
		z"/>
</g>
</svg>
